<svg id="visual" viewBox="0 0 900 600" width="900" height="600" xmlns="http://www.w3.org/2000/svg" xmlns:xlink="http://www.w3.org/1999/xlink" version="1.1"><path d="M0 91L37.5 93C75 95 150 99 225 100C300 101 375 99 450 111C525 123 600 149 675 162C750 175 825 175 862.5 175L900 175L900 0L862.5 0C825 0 750 0 675 0C600 0 525 0 450 0C375 0 300 0 225 0C150 0 75 0 37.5 0L0 0Z" fill="#74c6c6"></path><path d="M0 337L37.5 336C75 335 150 333 225 327C300 321 375 311 450 316C525 321 600 341 675 352C750 363 825 365 862.5 366L900 367L900 173L862.5 173C825 173 750 173 675 160C600 147 525 121 450 109C375 97 300 99 225 98C150 97 75 93 37.5 91L0 89Z" fill="#439596"></path><path d="M0 601L37.5 601C75 601 150 601 225 601C300 601 375 601 450 601C525 601 600 601 675 601C750 601 825 601 862.5 601L900 601L900 365L862.5 364C825 363 750 361 675 350C600 339 525 319 450 314C375 309 300 319 225 325C150 331 75 333 37.5 334L0 335Z" fill="#006768"></path></svg>